<svg width="101" height="32" viewBox="0 0 101 32" fill="none" xmlns="http://www.w3.org/2000/svg">
<path d="M10.0037 8.45453H12.6386V17.9574C12.6386 18.999 12.3924 19.9152 11.9 20.7059C11.4123 21.4967 10.7258 22.1146 9.84034 22.5596C8.95492 23 7.92036 23.2202 6.73664 23.2202C5.5482 23.2202 4.51127 23 3.62585 22.5596C2.74043 22.1146 2.05388 21.4967 1.56619 20.7059C1.0785 19.9152 0.834656 18.999 0.834656 17.9574V8.45453H3.4696V17.7372C3.4696 18.3433 3.60217 18.883 3.86733 19.3565C4.13721 19.83 4.516 20.2017 5.00369 20.4716C5.49138 20.7367 6.06903 20.8693 6.73664 20.8693C7.40426 20.8693 7.98191 20.7367 8.4696 20.4716C8.96202 20.2017 9.34081 19.83 9.60596 19.3565C9.87111 18.883 10.0037 18.3433 10.0037 17.7372V8.45453Z" fill="#101828"/>
<path d="M17.96 16.6079V23H15.389V12.0909H17.8464V13.9446H17.9742C18.2252 13.3338 18.6253 12.8485 19.1745 12.4886C19.7285 12.1288 20.4127 11.9488 21.2271 11.9488C21.9799 11.9488 22.6357 12.1098 23.1944 12.4318C23.7578 12.7538 24.1934 13.2202 24.5012 13.8309C24.8137 14.4417 24.9676 15.1827 24.9629 16.054V23H22.3918V16.4517C22.3918 15.7225 22.2024 15.152 21.8236 14.74C21.4496 14.3281 20.9311 14.1221 20.2682 14.1221C19.8184 14.1221 19.4183 14.2216 19.068 14.4204C18.7223 14.6146 18.4501 14.8963 18.2512 15.2656C18.0571 15.6349 17.96 16.0824 17.96 16.6079Z" fill="#101828"/>
<path d="M33.0239 12.0909V14.0795H26.7526V12.0909H33.0239ZM28.3009 9.47726H30.8719V19.7187C30.8719 20.0644 30.924 20.3295 31.0282 20.5142C31.1371 20.6941 31.2791 20.8172 31.4543 20.8835C31.6295 20.9498 31.8236 20.9829 32.0367 20.9829C32.1977 20.9829 32.3445 20.9711 32.4771 20.9474C32.6144 20.9238 32.7185 20.9024 32.7896 20.8835L33.2228 22.8934C33.0855 22.9408 32.889 22.9929 32.6333 23.0497C32.3824 23.1065 32.0746 23.1397 31.71 23.1491C31.0661 23.1681 30.4861 23.071 29.97 22.8579C29.4539 22.6401 29.0443 22.304 28.7413 21.8494C28.443 21.3949 28.2962 20.8267 28.3009 20.1449V9.47726Z" fill="#101828"/>
<path d="M35.1741 23V12.0909H37.7452V23H35.1741ZM36.4668 10.5426C36.0596 10.5426 35.7092 10.4077 35.4156 10.1378C35.1221 9.86315 34.9753 9.53407 34.9753 9.15055C34.9753 8.76229 35.1221 8.43322 35.4156 8.16333C35.7092 7.88871 36.0596 7.7514 36.4668 7.7514C36.8787 7.7514 37.2291 7.88871 37.5179 8.16333C37.8115 8.43322 37.9582 8.76229 37.9582 9.15055C37.9582 9.53407 37.8115 9.86315 37.5179 10.1378C37.2291 10.4077 36.8787 10.5426 36.4668 10.5426Z" fill="#101828"/>
<path d="M45.8364 12.0909V14.0795H39.5651V12.0909H45.8364ZM41.1134 9.47726H43.6844V19.7187C43.6844 20.0644 43.7365 20.3295 43.8407 20.5142C43.9496 20.6941 44.0916 20.8172 44.2668 20.8835C44.442 20.9498 44.6362 20.9829 44.8492 20.9829C45.0102 20.9829 45.157 20.9711 45.2896 20.9474C45.4269 20.9238 45.531 20.9024 45.6021 20.8835L46.0353 22.8934C45.898 22.9408 45.7015 22.9929 45.4458 23.0497C45.1949 23.1065 44.8871 23.1397 44.5225 23.1491C43.8786 23.1681 43.2986 23.071 42.7825 22.8579C42.2664 22.6401 41.8568 22.304 41.5538 21.8494C41.2555 21.3949 41.1087 20.8267 41.1134 20.1449V9.47726Z" fill="#101828"/>
<path d="M50.792 8.45453V23H48.221V8.45453H50.792Z" fill="#101828"/>
<path d="M58.2654 23.2131C57.1717 23.2131 56.2271 22.9858 55.4316 22.5312C54.6409 22.072 54.0325 21.4233 53.6063 20.5852C53.1802 19.7424 52.9671 18.7505 52.9671 17.6094C52.9671 16.4872 53.1802 15.5024 53.6063 14.6548C54.0372 13.8025 54.6385 13.1397 55.4103 12.6662C56.1821 12.188 57.0888 11.9488 58.1305 11.9488C58.8028 11.9488 59.4373 12.0577 60.0339 12.2756C60.6352 12.4886 61.1655 12.8201 61.6248 13.2699C62.0888 13.7197 62.4534 14.2926 62.7185 14.9886C62.9837 15.6799 63.1163 16.5038 63.1163 17.4602V18.2486H54.1745V16.5156H60.6518C60.647 16.0232 60.5405 15.5852 60.3322 15.2017C60.1238 14.8134 59.8326 14.508 59.4586 14.2855C59.0893 14.063 58.6584 13.9517 58.166 13.9517C57.6404 13.9517 57.1788 14.0795 56.781 14.3352C56.3833 14.5862 56.0732 14.9176 55.8506 15.3295C55.6328 15.7367 55.5216 16.1842 55.5168 16.6719V18.1846C55.5168 18.8191 55.6328 19.3636 55.8648 19.8182C56.0968 20.268 56.4212 20.6136 56.8379 20.8551C57.2545 21.0918 57.7422 21.2102 58.3009 21.2102C58.675 21.2102 59.0135 21.1581 59.3165 21.054C59.6196 20.9451 59.8824 20.7864 60.1049 20.5781C60.3274 20.3698 60.4955 20.1117 60.6092 19.804L63.0097 20.0738C62.8582 20.7083 62.5694 21.2623 62.1433 21.7358C61.7219 22.2045 61.1821 22.5691 60.5239 22.8295C59.8658 23.0852 59.1129 23.2131 58.2654 23.2131Z" fill="#101828"/>
<path d="M69.3396 23.1917C68.4826 23.1917 67.7156 22.9716 67.0385 22.5312C66.3614 22.0909 65.8264 21.4517 65.4334 20.6136C65.0404 19.7756 64.8439 18.7576 64.8439 17.5596C64.8439 16.3475 65.0427 15.3248 65.4405 14.4915C65.8429 13.6534 66.3851 13.0213 67.0669 12.5952C67.7487 12.1643 68.5087 11.9488 69.3467 11.9488C69.9859 11.9488 70.5115 12.0577 70.9234 12.2756C71.3354 12.4886 71.6621 12.7467 71.9035 13.0497C72.145 13.348 72.332 13.6297 72.4646 13.8949H72.5712V8.45453H75.1493V23H72.6209V21.2812H72.4646C72.332 21.5464 72.1403 21.8281 71.8893 22.1264C71.6384 22.42 71.307 22.6709 70.895 22.8792C70.4831 23.0876 69.9646 23.1917 69.3396 23.1917ZM70.057 21.0824C70.6015 21.0824 71.0655 20.9356 71.449 20.642C71.8325 20.3437 72.1237 19.9294 72.3226 19.3991C72.5214 18.8688 72.6209 18.2509 72.6209 17.5454C72.6209 16.8399 72.5214 16.2268 72.3226 15.7059C72.1284 15.1851 71.8396 14.7803 71.4561 14.4915C71.0773 14.2026 70.6109 14.0582 70.057 14.0582C69.484 14.0582 69.0058 14.2074 68.6223 14.5057C68.2388 14.804 67.95 15.2159 67.7558 15.7415C67.5617 16.267 67.4646 16.8684 67.4646 17.5454C67.4646 18.2273 67.5617 18.8357 67.7558 19.3707C67.9547 19.901 68.2459 20.3201 68.6294 20.6278C69.0177 20.9309 69.4935 21.0824 70.057 21.0824Z" fill="#101828"/>
<path d="M92.1326 8.45453H94.7675V17.9574C94.7675 18.999 94.5213 19.9152 94.0289 20.7059C93.5412 21.4967 92.8547 22.1146 91.9692 22.5596C91.0838 23 90.0493 23.2202 88.8655 23.2202C87.6771 23.2202 86.6402 23 85.7548 22.5596C84.8693 22.1146 84.1828 21.4967 83.6951 20.7059C83.2074 19.9152 82.9636 18.999 82.9636 17.9574V8.45453H85.5985V17.7372C85.5985 18.3433 85.7311 18.883 85.9962 19.3565C86.2661 19.83 86.6449 20.2017 87.1326 20.4716C87.6203 20.7367 88.1979 20.8693 88.8655 20.8693C89.5332 20.8693 90.1108 20.7367 90.5985 20.4716C91.0909 20.2017 91.4697 19.83 91.7349 19.3565C92 18.883 92.1326 18.3433 92.1326 17.7372V8.45453Z" fill="#101828"/>
<path d="M100.266 8.45453V23H97.6315V8.45453H100.266Z" fill="#101828"/>
</svg>
